<svg xmlns="http://www.w3.org/2000/svg" version="1.1" xmlns:xlink="http://www.w3.org/1999/xlink" xmlns:svgjs="http://svgjs.dev/svgjs" width="1920" height="1280" preserveAspectRatio="none" viewBox="0 0 1920 1280"><g mask="url(&quot;#SvgjsMask1158&quot;)" fill="none"><rect width="1920" height="1280" x="0" y="0" fill="rgba(51, 65, 85, 1)"></rect><path d="M -1711.6412883480689,190 C -1519.64,376.4 -1135.64,1132.8 -751.641288348069,1122 C -367.64,1111.2 -175.64,175.6 208.358711651931,136 C 592.36,96.4 826.03,843 1168.3587116519311,924 C 1510.69,1005 1769.67,617.6 1920,541" stroke="rgba(0, 122, 135, 0.65)" stroke-width="2"></path><path d="M -1581.0849593847129,542 C -1389.08,617.6 -1005.08,997.6 -621.084959384713,920 C -237.08,842.4 -45.08,131 338.915040615287,154 C 722.92,177 982.7,1040.6 1298.9150406152871,1035 C 1615.13,1029.4 1795.78,307.8 1920,126" stroke="rgba(0, 122, 135, 0.65)" stroke-width="2"></path><path d="M -733.5768123839982,526 C -541.58,592.6 -157.58,945.4 226.4231876160018,859 C 610.42,772.6 802.42,65.4 1186.4231876160018,94 C 1570.42,122.6 1999.71,986.4 2146.423187616002,1002 C 2293.14,1017.6 1965.28,338 1920,172" stroke="rgba(0, 122, 135, 0.65)" stroke-width="2"></path><path d="M -829.4531669517372,156 C -637.45,293.8 -253.45,757 130.54683304826278,845 C 514.55,933 706.55,550.4 1090.5468330482627,596 C 1474.55,641.6 1884.66,1159.2 2050.5468330482627,1073 C 2216.44,986.8 1946.11,346.6 1920,165" stroke="rgba(0, 122, 135, 0.65)" stroke-width="2"></path><path d="M -58.38885317102415,960 C 133.61,879 517.61,609.2 901.6111468289758,555 C 1285.61,500.8 1477.61,719.2 1861.611146828976,689 C 2245.61,658.8 2809.93,315.6 2821.611146828976,404 C 2833.29,492.4 2100.32,985.6 1920,1131" stroke="rgba(0, 122, 135, 0.65)" stroke-width="2"></path><path d="M -1441.1062547399247,501 C -1249.11,561.6 -865.11,844.6 -481.10625473992457,804 C -97.11,763.4 94.89,242.8 478.89374526007543,298 C 862.89,353.2 1150.67,1084.6 1438.8937452600753,1080 C 1727.11,1075.4 1823.78,436 1920,275" stroke="rgba(0, 122, 135, 0.65)" stroke-width="2"></path><path d="M -985.5705299394868,498 C -793.57,635.6 -409.57,1160 -25.570529939486875,1186 C 358.43,1212 550.43,691.4 934.4294700605132,628 C 1318.43,564.6 1697.32,951.6 1894.429470060513,869 C 2091.54,786.4 1914.89,345.8 1920,215" stroke="rgba(0, 122, 135, 0.65)" stroke-width="2"></path></g><defs><mask id="SvgjsMask1158"><rect width="1920" height="1280" fill="#ffffff"></rect></mask></defs></svg>